:FULLY-SPECIFIED
:FORCE-ALL-JOINTS-BE-3DOF
:DEGREES
34
root 5.98444 16.8966 -28.0789 9.98064 -1.74015 -2.231
lfemur -20.2432 1.5152 -19.797
ltibia 34.0386 -0 0
lfoot -35.8902 4.18175 0.000184259
ltoes 36.271 -0 0
rfemur -16.9735 6.05637 19.5163
rtibia 30.7972 -0 0
rfoot -27.55 -18.0315 -0.00302188
rtoes 13.3745 -0 0
lowerback -5.2701 2.48374 -1.01634
upperback -1.90091 3.3532 0.811735
thorax 0.877011 1.681 1.59428
lowerneck -9.59354 -1.65209 2.68082
upperneck -2.71147 -2.46794 0.639691
head 0.725494 -1.24056 -0.332731
lclavicle -2.5842e-15 6.16232e-15 0
lhumerus -41.5244 -12.4786 96.8383
lradius 38.617 -0 0
lwrist 5.51449 0 0
lhand -11.5665 4.18557 0.00294676
lfingers 7.12502 -0 0
lthumb 14.4748 33.6604 0.00276624
rclavicle -2.5842e-15 6.16232e-15 0
rhumerus -40.6809 -5.02493 -88.7834
rradius 39.324 -0 0
rwrist 10.7382 0 0
rhand -26.7951 -20.2014 -0.000253594
rfingers 7.12502 -0 0
rthumb -0.222205 -50.181 -0.000244942
35
root 5.97729 16.8968 -28.0795 10.0057 -1.71656 -2.20266
lfemur -20.2648 1.49562 -19.798
ltibia 34.0232 -0 0
lfoot -35.8148 4.18435 0.000177434
ltoes 36.153 -0 0
rfemur -16.9682 6.06851 19.5107
rtibia 30.7506 -0 0
rfoot -27.5047 -18.1022 -0.00290995
rtoes 13.0586 -0 0
lowerback -5.32725 2.46009 -0.915062
upperback -1.88229 3.3177 0.730077
thorax 0.940331 1.66204 1.45571
lowerneck -9.58394 -1.63689 2.7136
upperneck -2.74432 -2.45078 0.709749
head 0.713978 -1.23151 -0.315474
lclavicle -2.5842e-15 6.16232e-15 0
lhumerus -41.5116 -12.5527 96.7847
lradius 38.8201 -0 0
lwrist 5.64816 0 0
lhand -11.6005 4.09363 0.00283762
lfingers 7.12502 -0 0
lthumb 14.442 33.5708 0.00266378
rclavicle -2.5842e-15 6.16232e-15 0
rhumerus -40.6257 -5.02374 -88.9059
rradius 39.2821 -0 0
rwrist 10.7488 0 0
rhand -26.7834 -20.2243 -0.000244201
rfingers 7.12502 -0 0
rthumb -0.210854 -50.2039 -0.00023587
36
root 5.97015 16.897 -28.0802 10.0308 -1.69298 -2.17431
lfemur -20.2865 1.47605 -19.7991
ltibia 34.0078 -0 0
lfoot -35.7394 4.18694 0.000167197
ltoes 36.035 -0 0
rfemur -16.9628 6.08065 19.505
rtibia 30.704 -0 0
rfoot -27.4593 -18.1728 -0.00274207
rtoes 12.7428 -0 0
lowerback -5.38443 2.43655 -0.813762
upperback -1.86362 3.28222 0.64841
thorax 1.0037 1.64324 1.31713
lowerneck -9.57433 -1.6217 2.74637
upperneck -2.77714 -2.43357 0.779797
head 0.702464 -1.22246 -0.298219
lclavicle -2.5842e-15 6.16232e-15 0
lhumerus -41.4987 -12.6267 96.7311
lradius 39.0232 -0 0
lwrist 5.78183 0 0
lhand -11.6345 4.00168 0.00267391
lfingers 7.12502 -0 0
lthumb 14.4092 33.4812 0.0025101
rclavicle -2.5842e-15 6.16232e-15 0
rhumerus -40.5704 -5.02243 -89.0283
rradius 39.2401 -0 0
rwrist 10.7594 0 0
rhand -26.7716 -20.2472 -0.000230113
rfingers 7.12502 -0 0
rthumb -0.199502 -50.2268 -0.000222263
37
root 5.963 16.8973 -28.0809 10.0559 -1.66941 -2.14594
lfemur -20.3081 1.45647 -19.8002
ltibia 33.9924 -0 0
lfoot -35.664 4.18953 0.000153548
ltoes 35.9169 -0 0
rfemur -16.9575 6.0928 19.4994
rtibia 30.6574 -0 0
rfoot -27.4139 -18.2435 -0.00251822
rtoes 12.4269 -0 0
lowerback -5.44166 2.41311 -0.712439
upperback -1.8449 3.24678 0.566734
thorax 1.06711 1.6246 1.17852
lowerneck -9.56471 -1.60652 2.77914
upperneck -2.80994 -2.41633 0.849834
head 0.690953 -1.2134 -0.280965
lclavicle -2.5842e-15 6.16232e-15 0
lhumerus -41.4857 -12.7007 96.6775
lradius 39.2263 -0 0
lwrist 5.91551 0 0
lhand -11.6685 3.90974 0.00245562
lfingers 7.12502 -0 0
lthumb 14.3765 33.3916 0.00230519
rclavicle -2.5842e-15 6.16232e-15 0
rhumerus -40.5151 -5.021 -89.1508
rradius 39.1982 -0 0
rwrist 10.77 0 0
rhand -26.7598 -20.2701 -0.000211328
rfingers 7.12502 -0 0
rthumb -0.188151 -50.2497 -0.000204119
38
root 5.95585 16.8975 -28.0815 10.081 -1.64585 -2.11757
lfemur -20.3298 1.43689 -19.8013
ltibia 33.977 -0 0
lfoot -35.5886 4.19213 0.000136487
ltoes 35.7989 -0 0
rfemur -16.9521 6.10494 19.4937
rtibia 30.6108 -0 0
rfoot -27.3686 -18.3142 -0.00223842
rtoes 12.1111 -0 0
lowerback -5.49893 2.38977 -0.611095
upperback -1.82612 3.21135 0.48505
thorax 1.13056 1.6061 1.0399
lowerneck -9.55508 -1.59134 2.81192
upperneck -2.84272 -2.39904 0.919861
head 0.679445 -1.20434 -0.263713
lclavicle -2.5842e-15 6.16232e-15 0
lhumerus -41.4727 -12.7747 96.6238
lradius 39.4294 -0 0
lwrist 6.04918 0 0
lhand -11.7025 3.8178 0.00218277
lfingers 7.12502 -0 0
lthumb 14.3437 33.302 0.00204905
rclavicle -2.5842e-15 6.16232e-15 0
rhumerus -40.4598 -5.01946 -89.2732
rradius 39.1563 -0 0
rwrist 10.7807 0 0
rhand -26.7481 -20.293 -0.000187847
rfingers 7.12502 -0 0
rthumb -0.1768 -50.2726 -0.000181439
39
root 5.94871 16.8977 -28.0822 10.1061 -1.62231 -2.08918
lfemur -20.3514 1.41731 -19.8023
ltibia 33.9616 -0 0
lfoot -35.5132 4.19472 0.000116014
ltoes 35.6809 -0 0
rfemur -16.9467 6.11708 19.4881
rtibia 30.5642 -0 0
rfoot -27.3232 -18.3848 -0.00190265
rtoes 11.7952 -0 0
lowerback -5.55624 2.36653 -0.509729
upperback -1.8073 3.17596 0.403357
thorax 1.19406 1.58776 0.901255
lowerneck -9.54545 -1.57617 2.8447
upperneck -2.87548 -2.38172 0.989876
head 0.66794 -1.19528 -0.246464
lclavicle -2.5842e-15 6.16232e-15 0
lhumerus -41.4595 -12.8486 96.57
lradius 39.6325 -0 0
lwrist 6.18285 0 0
lhand -11.7365 3.72585 0.00185535
lfingers 7.12502 -0 0
lthumb 14.3109 33.2124 0.00174169
rclavicle -2.5842e-15 6.16232e-15 0
rhumerus -40.4046 -5.0178 -89.3957
rradius 39.1144 -0 0
rwrist 10.7913 0 0
rhand -26.7363 -20.3159 -0.00015967
rfingers 7.12502 -0 0
rthumb -0.165448 -50.2955 -0.000154223
40
root 5.94156 16.898 -28.0828 10.1312 -1.59878 -2.06079
lfemur -20.3731 1.39774 -19.8034
ltibia 33.9462 -0 0
lfoot -35.4378 4.19731 9.21286e-05
ltoes 35.5629 -0 0
rfemur -16.9414 6.12923 19.4825
rtibia 30.5176 -0 0
rfoot -27.2778 -18.4555 -0.00151092
rtoes 11.4794 -0 0
lowerback -5.61359 2.34339 -0.408342
upperback -1.78843 3.14059 0.321655
thorax 1.2576 1.56958 0.762593
lowerneck -9.5358 -1.56101 2.87748
upperneck -2.90821 -2.36435 1.05988
head 0.656437 -1.18622 -0.229216
lclavicle -2.5842e-15 6.16232e-15 0
lhumerus -41.4463 -12.9226 96.5163
lradius 39.8355 -0 0
lwrist 6.31653 0 0
lhand -11.7705 3.63391 0.00147336
lfingers 7.12502 -0 0
lthumb 14.2782 33.1229 0.0013831
rclavicle -2.5842e-15 6.16232e-15 0
rhumerus -40.3493 -5.01602 -89.5182
rradius 39.0725 -0 0
rwrist 10.8019 0 0
rhand -26.7246 -20.3387 -0.000126797
rfingers 7.12502 -0 0
rthumb -0.154097 -50.3184 -0.000122471
